<?xml version="1.0" encoding="UTF-8"?><svg id="Ebene_1" xmlns="http://www.w3.org/2000/svg" width="251.87" height="206.91" viewBox="0 0 251.87 206.91"><path d="m0,120.02c4.28-10.92,10-21.11,16.41-30.86,4.02-6.12,7.75-12.44,11.83-18.52,2.2-3.27,2.75-8.13,4.74-11.97,9.37-18.07,22.18-32.97,39.75-43.69,12.85-7.84,26.57-12.18,41.53-14.16,18.18-2.41,35.42.75,52.3,6.43,8.32,2.8,15.59,8.2,22.64,13.61,16.12,12.38,27.42,28.28,34.48,47.19.93,2.5,1.99,2.97,4.16,2.95,5.49-.05,10.99-.05,16.49,0,3,.03,5.95.14,6.56,4.18.51,3.4-1.12-1.51-.02-.21,1,4,1,4.34,1,8,0,1,0-1-.56,6.03-3.22,10.34-9.4,19.4-15.01,28.51-6.67,10.84-12.96,21.79-18.49,33.24-7.49,15.49-18.98,27.63-32.91,37.55-12.87,9.17-27.27,15.17-42.73,17.42-27.08,3.95-52.3-1.88-74.72-17.87-17.38-12.4-30.51-28.29-37.52-48.76-.79-2.29-1.96-3.16-4.53-3.24-6.4-.2-12.83,1-19.21-.74-2.84-.77-4.49-2.36-5.4-4.99M42.09,60c-4.41,7.52-8.6,15.17-13.26,22.53-7.65,12.07-15.26,24.14-21.11,37.21-2.7,6.02-.57,9.14,5.91,9.23,5.11.08,10.07-.58,15.05-1.81,2.05-.51,5.85-1.64,6.07,2.07.46,7.87,4.67,14.05,8.15,20.56,12.13,22.69,31.15,37.26,55.11,45.56,13.58,4.7,27.73,4.87,41.76,2.53,25.08-4.18,45.97-15.92,61.68-36.12,4.03-5.18,8.65-10.18,10.21-16.92,5.9-11.17,11.99-22.23,18.66-32.97,5.21-8.4,10.13-16.99,14.15-26.06,2.31-5.23,2.63-7.38-3.95-6.92-5.8.41-11.65-.06-17.47.12-3.08.1-4.37-.75-5.39-4-8.41-26.84-25.63-46.19-50.85-58.48-14.95-7.28-30.91-9.17-47.28-8.47-11.72.5-22.95,3.1-33.54,8.37-14.09,7-26.44,16.17-35.74,28.97-3.26,4.49-7.42,8.64-8.15,14.6Z"/><path d="m211.65,144.84c-1.56,6.75-6.18,11.75-10.21,16.92-15.71,20.2-36.6,31.94-61.68,36.12-14.04,2.34-28.19,2.17-41.76-2.53-23.96-8.29-42.97-22.87-55.11-45.56-3.48-6.51-7.68-12.7-8.15-20.56-.22-3.71-4.02-2.57-6.07-2.07-4.98,1.23-9.94,1.89-15.05,1.81-6.48-.1-8.61-3.21-5.91-9.23,5.85-13.07,13.47-25.14,21.11-37.21,4.66-7.36,8.86-15.01,13.26-22.53,1.68-.21,2.93-.83,4.05-2.34,2.76-3.71,5.88-7.15,8.82-10.72,2.84-3.46,6.43-3.85,9.66-.72,2.94,2.84,6.37,4.68,10.17,5.97,2.39,2.29,4.78,4.59,7.17,6.88-2.79,1.43-4.59,4.14-4.81,6.78-.35,4.21-2.62,4.28-5.66,4.15-2.65-.11-5.33.17-7.97-.05-12.71-1.04-19.06,6.22-18.81,18.46.21,10.08,4.1,14.85,13.73,13.72,1.79-.21,3.67-.41,4.26,2.01-3.53-.03-7.08-.77-10.55.49-.47.06-.81.27-1.28.33-.17-.31-.65,1-1,1-1,1-1.23-.06-2,1-3.89,5.34-5.83,5.41-3.97,11.45,1.66,5.4,5.75,6.56,10.66,6.55,6.37-.01,12.75,0,19.49,0-.74,2.36-2.48,2.28-3.48,3.13-2.2,1.86-4.74,3.32-4.77,6.97-.06,7.52,1.77,10.4,9.66,12.06,10.3,2.16,20.38-1.7,22.63-12.36.34-1.61.32-4.11,2.72-4.87,1.55,3.09,2.28,6.53,4.71,9.23,6.17,6.85,12.96,13.04,21.63,16.28,9.04,3.38,18.03,6.61,28.38,4.87,8.15-1.37,16-2.93,23.44-6.48,1.86.3,3.31,1.32,4.75,2.47,11.18,8.92,9.96,6.59,18.31-1.21.58-.54.76-1.55,1.37-2.03,3.06-2.43,3.91-7.07,8.25-8.19Z" fill="#ff63cb"/><path d="m74.79,52.19c-3.8-1.3-7.23-3.13-10.17-5.97-3.23-3.13-6.82-2.74-9.66.72-2.94,3.58-6.06,7.02-8.82,10.72-1.12,1.51-2.37,2.13-4.05,2.34.74-5.96,4.89-10.11,8.15-14.6,9.3-12.8,21.65-21.97,35.74-28.97,10.59-5.26,21.82-7.87,33.54-8.37,16.36-.69,32.33,1.19,47.28,8.47,25.22,12.28,42.44,31.64,50.85,58.48,1.02,3.25,2.31,4.1,5.39,4,5.82-.18,11.67.29,17.47-.12,6.58-.46,6.26,1.69,3.95,6.92-4.01,9.07-8.93,17.66-14.15,26.06-6.67,10.74-12.76,21.8-18.66,32.97-4.34,1.11-5.19,5.76-8.25,8.19-.61.48-.79,1.49-1.37,2.03-8.35,7.81-7.13,10.13-18.31,1.21-1.44-1.15-2.9-2.17-4.75-2.47-.34-2.29-4.05-2.72-3.14-5.7,6.01-2.15,9.57-6.07,8.97-12.79-.24-2.65,1.67-3.02,3.36-3.26,2.43-.34,4.89-.3,7.19,1.02,2.98,1.71,6.05,1.28,8.89-.35,6.9-3.97,7.65-11.94,1.57-18.17-4.6-4.72-9.05-9.5-12.87-15.61,1.51,0,2.65.18,3.7-.03,7.1-1.45,10.77-4.47,11.17-9.11.67-7.67-2.01-11.23-12.94-11.75-9.05-.43-9.07-.17-10.04-9.09-.54-4.99-3.8-8.58-8.15-8.97-8.17-.74-10.4.57-12.42,6.98-.78,2.47-.42,4.94-.38,7.39.05,3.37-1.86,3.55-4.51,3.69-2.9.15-3.83-.88-3.57-3.62.17-1.82-.04-3.67.08-5.49.28-4.17-1.5-6.62-5.48-8.16-3.46-1.34-6.86-.35-10.26-.77-.51-2.01-1.49-3.59-3.43-4.61-5.71-3-11.44-6.37-17.81-7.28-14.95-2.13-29.93-2.88-44.11,4.06Z" fill="#65cbfe"/><path d="m50.73,104.82c.47-.06.95-.12,1.42-.18,3.53.13,7.1,1.14,10.55-.49-.59-2.42-2.47-2.22-4.26-2.01-9.63,1.13-13.52-3.64-13.73-13.72-.26-12.24,6.1-19.5,18.81-18.46,2.64.22,5.32-.06,7.97.05,3.04.12,5.31.06,5.66-4.15.22-2.64,2.02-5.36,4.81-6.78q12.17-.18,16.06,9.08c-.17.55.1.8.61.89l.22.22c.13.51.36.82.94.52,4.73,0,9.46.02,14.19.03l.37.17.39-.12c.57.31,1.11.83,1.7.9,5.45.61,9.97,2.24,11.66,8.34.43,1.55,1.95,1.72,2.95-.45,2.89-6.28,6.04-12.43,9.09-18.63,3.4.42,6.8-.57,10.26.77,3.98,1.54,5.76,3.99,5.48,8.16-.12,1.82.09,3.67-.08,5.49-.26,2.74.67,3.77,3.57,3.62,2.65-.13,4.57-.32,4.51-3.69-.04-2.45-.39-4.93.38-7.39,2.02-6.41,4.25-7.71,12.42-6.98,4.35.39,7.6,3.98,8.15,8.97.97,8.92.98,8.66,10.04,9.09,10.93.52,13.61,4.08,12.94,11.75-.4,4.64-4.07,7.66-11.17,9.11-1.05.21-2.18.03-3.7.03,3.82,6.1,8.27,10.89,12.87,15.61,6.08,6.24,5.33,14.2-1.57,18.17-2.84,1.63-5.91,2.06-8.89.35-2.3-1.32-4.76-1.36-7.19-1.02-1.7.23-3.6.61-3.36,3.26.6,6.72-2.96,10.64-8.97,12.79-8.23-.47-11.4-3.7-11.99-12.35-.12-1.73-.14-3.22-2.36-3.75-5.95-1.41-10.47,1.38-11.62,7.37-.94,4.88-6.01,8.78-11.13,8.57-4.95-.2-8.34-3.8-8.9-9.32-.42-4.18-1.49-8.39-1.25-12.52.17-2.84-1.25-2.38-2.5-2.1-6.71,1.5-13.51.84-20.24.7-4.13-.08-5.44,1.42-5.03,5.18-2.4.76-2.38,3.25-2.72,4.87-2.25,10.66-12.33,14.52-22.63,12.36-7.89-1.66-9.73-4.54-9.66-12.06.03-3.65,2.57-5.11,4.77-6.97,1-.84,2.73-.76,3.48-3.13-6.75,0-13.12,0-19.49,0-4.9,0-8.99-1.15-10.66-6.55-1.86-6.03-1.18-8.54,4.19-12.38m5.72,4.72c-2.87-.23-4.6,1.53-4.42,3.96.18,2.43,2.19,3.64,4.97,3.6,7.98-.12,15.96.07,23.94-.01,3.8-.04,6.53.55,5.64,5.4-.5,2.73.96,5.92-.73,8.24-1.65,2.26-4.76.35-7.04,1.08-2.03.65-4.79,1.11-4.24,4.38.47,2.77,2.32,3.69,4.99,3.57,2.49-.11,4.99.07,7.48-.05,4.3-.21,7.28-3.16,7.46-7.47.14-3.32.31-6.68-.04-9.97-.46-4.3,1.26-5.3,5.32-5.17,7.97.26,15.95-.02,23.93-.14,2.18-.03,3.74-.73,3.86-3.45.11-2.7-1.6-3.34-3.52-3.74-1.44-.3-2.98-.24-4.47-.24-6.48-.02-12.97.05-19.45-.02-1.89-.02-4.69.87-5.31-1.36-.69-2.47,2.45-2.37,3.91-3.43,3.64-2.65,8.3-3.5,11.56-6.87,1.27-1.31,2.75-2.62,2.1-4.33-.61-1.61-1-3.92-3.8-3.83-2.12.07-4.25-.55-6.38-.57-10.14-.09-20.28-.08-30.42-.1q-1.27.73-2.27.73c-1.73,1.07-2.75,2.98-2.07,5.43.75,2.74,2.63,1.56,3.91,1.58,8.31.14,16.62.07,25.34.07-1.13,3.5-3.99,4.35-5.89,4.65-3.14.49-3.97,2.66-4.09,4.6-.22,3.54-2.28,3.48-4.7,3.47-8.11-.04-16.22-.07-24.33-.11-.46-.75-.85-.56-1.22.08Zm91.19,11.82c-.64-.66-1.21-1.17-1.11-2.16.74-7.47.17-14.95-.05-22.42-.2-6.57-.19-13.05,3.02-19.1,1.2-2.25,2.37-4.64,2.86-7.11.38-1.9,1.15-4.77-1.6-5.63-2.51-.79-4.75.38-5.87,2.99-.95,2.21-1.64,4.56-2.79,6.66-4.17,7.61-7.01,15.97-13.18,22.46-1.38,1.45-2.53,3.84-.48,6.23,2.23,2.6,4.37,1.25,6.61.3,1.09-.46,1.52-2.45,3.46-1.31,0,11.21.05,22.53-.04,33.84-.02,2.94,1.35,3.66,3.98,3.67,2.6.02,4.17-.58,4.07-3.56-.11-3.33-.11-6.66.02-9.99.06-1.61,1.13-2.44,1.72-1.78,1.99,2.24,4.07,1.61,5.91.27,3.43-2.5,6.28-4.15,10.17-.17,1.54,1.57,6.46.25,7.49,1.81,1.4,2.12.54,5.72.65,8.69,0,.17,0,.33,0,.5.16,3.52,2.38,4.49,5.4,4.15,3.21-.36,2.98-2.63,2.16-4.79-.31-.82-.52-1.28-.1-2.16,1.87-3.99,1.6-10.18,8.98-8.28.45.12,1.48-.87,1.79-1.55,1.45-3.16,3-2.65,5.03-.5,1.22,1.29,2.84,2.19,4.22,3.34,1.63,1.36,3.48,1.7,4.78.02,1.07-1.38,2.45-2.91,1.14-5.26-1.08-1.95-2.51-3.49-4.09-4.86-6.66-5.78-11-13.24-15.31-20.73-1.69-2.93-.84-4.21,2.45-4.17,3.5.04,7-.05,10.49.07,2.69.09,4.51-.88,4.98-3.62.54-3.15-1.83-3.46-3.99-3.7-2.3-.26-4.62-.34-6.93-.41-3.81-.12-8.72,1.24-11.13-.64-2.59-2.02-.55-7.17-.89-10.94-.04-.5.07-1.02-.03-1.5-.53-2.55-.75-5.28-4.48-5.28-3.71,0-4.22,2.67-4.44,5.25-.28,3.31-.22,6.67-.02,9.98.16,2.68-.74,3.36-3.4,3.22-4.98-.26-9.99.07-14.98-.09-2.69-.09-4.14,1.38-4.51,3.52-.43,2.53,1.4,3.47,3.75,4.23,4.91,1.58,10.02.37,15.04,1.2-4.65,11.57-12.9,20.21-20.8,29.33Zm-57.42-38.65s0-.01,0-.02c5.98,0,11.96-.03,17.95.01,2.64.02,5.65-.57,7.83.48,3.12,1.5,1.1,5.08,1.48,7.72.33,2.33,1.58,3.47,3.75,3.88,2.07.39,3.7-.42,3.98-2.42.59-4.1.87-8.33-.12-12.33-.54-2.17-2.04-3.98-5.17-4.43-4.94-.7-9.83-.69-14.76-.77-2.99-.04-6.1.49-8.94-.18-4.04-.94-1-4.95-2.33-7.52-1.35-2.59-2.69-3.55-5-3.24-2.38.32-3.55,2.11-3.36,4.63.06.83-.1,1.68.03,2.49.51,3.03-.62,4.06-3.74,3.92-5.47-.25-10.99-.45-16.44,0-8.78.72-11.43.84-11.81,11.8-.02.66-.04,1.33,0,1.99.19,3.06.44,6.2,4.66,6.02,4.12-.17,4.76-3.41,4.18-6.31-1.07-5.42,2.12-5.71,5.88-5.72,7.31-.02,14.62,0,21.93,0Z"/><path d="m100.81,129.89c-.41-3.76.9-5.27,5.03-5.18,6.74.13,13.53.79,20.24-.7,1.25-.28,2.67-.74,2.5,2.1-.24,4.13.83,8.34,1.25,12.52.56,5.52,3.95,9.12,8.9,9.32,5.12.21,10.19-3.7,11.13-8.57,1.16-6,5.67-8.79,11.62-7.37,2.22.53,2.24,2.02,2.36,3.75.59,8.65,3.76,11.88,11.99,12.35-.9,2.97,2.8,3.41,3.14,5.7-7.44,3.55-15.3,5.11-23.44,6.48-10.34,1.74-19.33-1.49-28.38-4.87-8.67-3.24-15.46-9.43-21.63-16.28-2.44-2.7-3.16-6.15-4.71-9.23Z" fill="#ae58d6"/><path d="m98.01,68.15q-3.89-9.25-16.06-9.08c-2.39-2.29-4.78-4.59-7.17-6.88,14.18-6.94,29.16-6.19,44.11-4.06,6.37.91,12.1,4.28,17.81,7.28,1.94,1.02,2.92,2.6,3.43,4.61-3.05,6.2-6.2,12.35-9.09,18.63-1,2.17-2.52,2-2.95.45-1.69-6.1-6.21-7.73-11.66-8.34-.59-.07-1.14-.59-1.7-.89-.23-.44-.48-.48-.77-.05-4.73,0-9.46-.02-14.19-.03-.31-.17-.63-.35-.94-.52,0,0-.22-.22-.22-.22-.2-.3-.41-.59-.61-.89Z" fill="#ae58d6"/><path d="m62.7,104.15c-3.45,1.63-7.03.62-10.55.49,3.47-1.26,7.03-.52,10.55-.49Z"/><path d="m145.01,122.57c7.9-9.12,16.14-17.76,20.8-29.33-5.03-.82-10.13.38-15.04-1.2-2.35-.75-4.18-1.7-3.75-4.23.37-2.14,1.82-3.61,4.51-3.52,4.99.16,10-.17,14.98.09,2.66.14,3.56-.54,3.4-3.22-.2-3.32-.26-6.68.02-9.98.22-2.58.73-5.25,4.44-5.25,3.73,0,3.94,2.73,4.48,5.28.1.48-.02,1,.03,1.5.34,3.77-1.7,8.92.89,10.94,2.41,1.88,7.32.52,11.13.64,2.31.07,4.63.15,6.93.41,2.16.24,4.53.56,3.99,3.7-.47,2.74-2.3,3.71-4.98,3.62-3.49-.12-6.99-.03-10.49-.07-3.29-.04-4.14,1.25-2.45,4.17,4.32,7.5,8.65,14.95,15.31,20.73,1.58,1.37,3,2.9,4.09,4.86,1.3,2.35-.08,3.88-1.14,5.26-1.3,1.69-3.15,1.35-4.78-.02-1.38-1.15-3-2.05-4.22-3.34-2.03-2.15-3.58-2.67-5.03.5-.31.68-1.34,1.67-1.79,1.55-7.38-1.9-7.11,4.29-8.98,8.28-.41.88-.21,1.34.1,2.16.82,2.16,1.05,4.43-2.16,4.79-3.02.34-5.24-.63-5.4-4.15,0-.17,0-.33,0-.5-.11-2.97.75-6.57-.65-8.69-1.02-1.55-5.95-.23-7.49-1.81-3.89-3.98-6.74-2.32-10.17.17-1.84,1.34-3.93,1.97-5.91-.27-.59-.67-1.65.17-1.72,1.78-.13,3.33-.13,6.66-.02,9.99.1,2.98-1.47,3.57-4.07,3.56-2.64-.02-4.01-.73-3.98-3.67.09-11.32.04-22.64.04-33.84-1.94-1.13-2.37.85-3.46,1.31-2.25.95-4.38,2.3-6.61-.3-2.05-2.39-.9-4.78.48-6.23,6.17-6.5,9.02-14.86,13.18-22.46,1.15-2.1,1.84-4.45,2.79-6.66,1.12-2.61,3.36-3.77,5.87-2.99,2.75.86,1.98,3.73,1.6,5.63-.49,2.47-1.66,4.85-2.86,7.11-3.21,6.05-3.21,12.53-3.02,19.1.22,7.47.79,14.95.05,22.42-.1,1,.47,1.51,1.11,2.16Zm13.78-2.36c3.24-.96,5.93-1.55,8.71-1.26,1.6.17,2.44-.29,2.38-2.14-.12-3.32-.01-6.64-.06-9.97,0-.58.26-1.36-.63-1.67-1.04-.36-1.75.4-1.98,1.05-1.8,5.01-5.69,8.8-8.42,13.98Zm29.54.4l1.06-.63c-3.05-4.62-6.48-9.03-8.41-14.25-.43-1.15-1.76,0-1.78.48-.21,3.95-.78,8.01-.1,11.83.36,2.03,3.52.4,5.31.95,1.35.41,2.61,1.07,3.92,1.63Z" fill="#fff"/><path d="m69.14,90.24c10.14.02,20.28.01,30.42.1,2.13.02,4.26.64,6.38.57,2.8-.09,3.19,2.23,3.8,3.83.65,1.71-.83,3.02-2.1,4.33-3.25,3.37-7.92,4.22-11.56,6.87-1.46,1.06-4.6.97-3.91,3.43.62,2.23,3.42,1.34,5.31,1.36,6.48.07,12.97,0,19.45.02,1.49,0,3.02-.06,4.47.24,1.93.4,3.64,1.04,3.52,3.74-.11,2.72-1.68,3.42-3.86,3.45-7.98.12-15.96.4-23.93.14-4.06-.13-5.78.86-5.32,5.17.35,3.29.18,6.65.04,9.97-.18,4.31-3.17,7.26-7.46,7.47-2.49.12-4.99-.07-7.48.05-2.67.12-4.52-.8-4.99-3.57-.55-3.26,2.2-3.73,4.24-4.38,2.28-.73,5.39,1.18,7.04-1.08,1.7-2.32.23-5.51.73-8.24.9-4.85-1.83-5.44-5.64-5.4-7.98.09-15.96-.11-23.94.01-2.78.04-4.79-1.17-4.97-3.6-.18-2.43,1.55-4.19,4.42-3.96.41-.03.81-.06,1.22-.08,8.11.04,16.22.07,24.33.11,2.42.01,4.48.06,4.7-3.47.12-1.94.95-4.11,4.09-4.6,1.89-.3,4.75-1.15,5.89-4.65-8.71,0-17.03.07-25.34-.07-1.28-.02-3.16,1.16-3.91-1.58-.67-2.45.34-4.37,2.07-5.43,1.07-.84,0,0,2.27-.73Z" fill="#fff"/><path d="m87.58,83.93c-7.31,0-14.62-.02-21.93,0-3.75.01-6.95.3-5.88,5.72.57,2.9-.06,6.14-4.18,6.31-4.22.18-4.47-2.96-4.66-6.02-.04-.66-.03-1.33,0-1.99.38-10.96,3.03-11.07,11.81-11.8,5.45-.45,10.97-.25,16.44,0,3.12.14,4.25-.89,3.74-3.92-.14-.81.03-1.66-.03-2.49-.19-2.52.98-4.31,3.36-4.63,2.31-.31,3.65.66,5,3.24,1.34,2.57-1.71,6.58,2.33,7.52,2.84.66,5.95.13,8.94.18,4.92.07,9.82.06,14.76.77,3.13.45,4.63,2.26,5.17,4.43.99,4,.71,8.24.12,12.33-.29,2.01-1.92,2.82-3.98,2.42-2.17-.41-3.42-1.55-3.75-3.88-.38-2.64,1.65-6.22-1.48-7.72-2.19-1.05-5.19-.46-7.83-.48-5.98-.04-11.96-.01-17.95-.01,0,0,0,.01,0,.02Z" fill="#fff"/><path d="m98.01,68.15c.2.3.41.59.61.89-.51-.09-.78-.34-.61-.89Z"/><path d="m98.84,69.26c.31.17.63.35.94.52-.58.3-.82,0-.94-.52Z"/><path d="m113.97,69.81c.29-.42.54-.39.77.05,0,0-.4.12-.4.12l-.37-.17Z"/><path d="m55.04,110.67c-.41.03-.81.06-1.22.08.36-.64.76-.84,1.22-.08Z"/><path d="m158.79,120.22c2.73-5.18,6.62-8.97,8.42-13.98.23-.64.94-1.41,1.98-1.05.89.31.62,1.09.63,1.67.05,3.32-.06,6.65.06,9.97.06,1.84-.77,2.31-2.38,2.14-2.78-.3-5.47.29-8.71,1.26Z"/><path d="m188.33,120.62c-1.3-.55-2.57-1.22-3.92-1.63-1.79-.55-4.95,1.09-5.31-.95-.68-3.82-.12-7.88.1-11.83.03-.49,1.36-1.64,1.78-.48,1.93,5.22,5.36,9.63,8.41,14.25l-1.06.63Z"/></svg>